{"title":"Ash vs Evil Dead S01E07 1080i HDTV DD5.1 MPEG2-NTb[rapidmoviez]","uid":12991695,"size":2666439344,"categoryP":"video","categoryS":"hd___tv_shows","magnet":"?xt=urn:btih:ac798e050eff61cc611570d52d326e533249ca12&amp;dn=Ash+vs+Evil+Dead+S01E07+1080i+HDTV+DD5.1+MPEG2-NTb%5Brapidmoviez%5D&amp;tr=udp%3A%2F%2Ftracker.leechers-paradise.org%3A6969&amp;tr=udp%3A%2F%2Fzer0day.ch%3A1337&amp;tr=udp%3A%2F%2Fopen.demonii.com%3A1337&amp;tr=udp%3A%2F%2Ftracker.coppersurfer.tk%3A6969&amp;tr=udp%3A%2F%2Fexodus.desync.com%3A6969","seeders":0,"leechers":1,"uploader":"cheerfulcaca","files":1,"time":1450129639,"description":"***THIS IS A .TS VIDEO FILE THAT CAN BE PLAYED WITH VLC MEDIA PLAYER OR ROXPLAYER***\n\n\nSEASON 1, EPISODE 7 &quot;FIRE IN THE HOLE&quot; SYNOPSIS:\n\nAsh and the others turn to Lem's survivalist group for help. However, by the time the Deadite fighters get there, it's too late. Meanwhile, Ruby discovers that Ash's severed hand is missing.\n\n\nSERIES INFO:\n\n9.3/10·IMDb\n98%·Rotten Tomatoes\n9.4/10·TV.com\n\nAsh is baaaack! Bruce Campbell reprises his &quot;Evil Dead&quot; film role as heroic, chainsaw-handed monster fighter Ash Williams, now an aging lothario who has successfully avoided responsibility, maturity and heinous villains for the past 30 years. Constantly peering over his shoulder, Ash somehow knew that the Evil Dead would return for him. That day arrives when Ash commits an act of carelessness, unleashing a Deadite plague that threatens to destroy mankind. Co-starring in the half-hour series are Lucy Lawless as mysterious Ruby; Ray Santiago as Ash's loyal sidekick, Pablo Simon Bolivar; Dana DeLorenzo as moody wild child Kelly Maxwell; and Jill Marie Jones as disgraced Michigan State Trooper Amanda Fisher.\n\n\nMEDIA INFO:\n\nGeneral:\n\nID                                       : 1002 (0x3EA)\nComplete name                            : Ash.vs.Evil.Dead.S01E07.1080i.HDTV.DD5.1.MPEG2-NTb.www.RapidMovieZ.com.ts\nFormat                                   : MPEG-TS\nFile size                                : 2.48 GiB\nDuration                                 : 25mn 26s\nOverall bit rate mode                    : Variable\nOverall bit rate                         : 14.0 Mbps\n\nVideo:\n\nID                                       : 17 (0x11)\nMenu ID                                  : 1 (0x1)\nFormat                                   : MPEG Video\nFormat version                           : Version 2\nFormat profile                           :   \nFormat settings, BVOP                    : Yes\nFormat settings, Matrix                  : Default\nFormat settings, GOP                     : M=3, N=15\nFormat settings, picture structure       : Frame\nCodec ID                                 : 2\nDuration                                 : 25mn 26s\nBit rate                                 : 12.9 Mbps\nMaximum bit rate                         : 13.2 Mbps\nWidth                                    : 1 920 pixels\nHeight                                   : 1 080 pixels\nDisplay aspect ratio                     : 16:9\nFrame rate                               : 29.970 (30000/1001) fps\nColor space                              : YUV\nChroma subsampling                       : 4:2:0\nBit depth                                : 8 bits\nScan type                                : Interlaced\nScan order                               : Top Field First\nCompression mode                         : Lossy\nBits/(Pixel*Frame)                       : 0.207\nTime code of first frame                 : 00:00:00;00\nTime code source                         : Group of pictures header\nGOP, Open/Closed                         : Closed\nStream size                              : 2.29 GiB (92%)\n\nAudio:\n\nID                                       : 20 (0x14)\nMenu ID                                  : 1 (0x1)\nFormat                                   : AC-3\nFormat/Info                              : Audio Coding 3\nMode extension                           : CM (complete main)\nFormat settings, Endianness              : Big\nCodec ID                                 : 129\nDuration                                 : 25mn 26s\nBit rate mode                            : Constant\nBit rate                                 : 384 Kbps\nChannel(s)                               : 6 channels\nChannel positions                        : Front: L C R, Side: L R, LFE\nSampling rate                            : 48.0 KHz\nFrame rate                               : 31.250 fps (1536 spf)\nCompression mode                         : Lossy\nDelay relative to video                  : 4ms\nStream size                              : 69.9 MiB (3%)\n\n \nhttps://www.RapidMovieZ.com","torrent":{"xt":"urn:btih:ac798e050eff61cc611570d52d326e533249ca12","amp;dn":"Ash+vs+Evil+Dead+S01E07+1080i+HDTV+DD5.1+MPEG2-NTb%5Brapidmoviez%5D","amp;tr":["udp%3A%2F%2Ftracker.leechers-paradise.org%3A6969","udp%3A%2F%2Fzer0day.ch%3A1337","udp%3A%2F%2Fopen.demonii.com%3A1337","udp%3A%2F%2Ftracker.coppersurfer.tk%3A6969","udp%3A%2F%2Fexodus.desync.com%3A6969"],"infoHash":"ac798e050eff61cc611570d52d326e533249ca12","infoHashBuffer":{"type":"Buffer","data":[172,121,142,5,14,255,97,204,97,21,112,213,45,50,110,83,50,73,202,18]},"announce":[],"urlList":[]}}